<?xml version="1.0" encoding="utf-8"?>
<svg xmlns="http://www.w3.org/2000/svg" xmlns:xlink="http://www.w3.org/1999/xlink" style="margin: auto; background: none; display: block; shape-rendering: auto;" width="24px" height="24px" viewBox="0 0 100 100" preserveAspectRatio="xMidYMid">
<g transform="translate(50 50)">
<g transform="rotate(32.6231)">
<animateTransform attributeName="transform" type="rotate" values="0;60" keyTimes="0;1" dur="0.4385964912280702s" repeatCount="indefinite"></animateTransform><path d="M26.153393661244042 -10 L40.15339366124404 -10 L40.15339366124404 10 L26.153393661244042 10 A28 28 0 0 1 21.73695086846641 17.649503305812246 L21.73695086846641 17.649503305812246 L28.73695086846641 29.773858958794385 L11.416442792777637 39.773858958794385 L4.416442792777636 27.649503305812246 A28 28 0 0 1 -4.4164427927776275 27.64950330581225 L-4.4164427927776275 27.64950330581225 L-11.416442792777623 39.77385895879439 L-28.736950868466398 29.773858958794396 L-21.7369508684664 17.649503305812253 A28 28 0 0 1 -26.153393661244042 10.000000000000004 L-26.153393661244042 10.000000000000004 L-40.15339366124404 10.000000000000005 L-40.15339366124404 -9.999999999999995 L-26.153393661244042 -9.999999999999996 A28 28 0 0 1 -21.736950868466415 -17.64950330581224 L-21.736950868466415 -17.64950330581224 L-28.736950868466423 -29.773858958794378 L-11.416442792777667 -39.773858958794385 L-4.416442792777659 -27.649503305812246 A28 28 0 0 1 4.416442792777599 -27.649503305812253 L4.416442792777599 -27.649503305812253 L11.416442792777591 -39.7738589587944 L28.736950868466394 -29.7738589587944 L21.7369508684664 -17.649503305812253 A28 28 0 0 1 26.153393661244035 -10.00000000000002 M0 -17A17 17 0 1 0 0 17 A17 17 0 1 0 0 -17" fill="#ffffff"></path></g></g>
<!-- [ldio] generated by https://loading.io/ --></svg>